<svg width="21" height="20" viewBox="0 0 21 20" fill="none" xmlns="http://www.w3.org/2000/svg">
<path d="M15.209 18.9582C14.2673 18.9582 13.2757 18.7332 12.2507 18.2998C11.2507 17.8748 10.2423 17.2915 9.25899 16.5832C8.28399 15.8665 7.34232 15.0665 6.45065 14.1915C5.56732 13.2998 4.76732 12.3582 4.05898 11.3915C3.34232 10.3915 2.76732 9.3915 2.35898 8.42484C1.92565 7.3915 1.70898 6.3915 1.70898 5.44984C1.70898 4.79984 1.82565 4.18317 2.05065 3.60817C2.28398 3.0165 2.65898 2.4665 3.16732 1.9915C3.80898 1.35817 4.54232 1.0415 5.32565 1.0415C5.65065 1.0415 5.98398 1.1165 6.26732 1.24984C6.59232 1.39984 6.86732 1.62484 7.06732 1.92484L9.00065 4.64984C9.17565 4.8915 9.30898 5.12484 9.40065 5.35817C9.50898 5.60817 9.56732 5.85817 9.56732 6.09984C9.56732 6.4165 9.47565 6.72484 9.30065 7.0165C9.17565 7.2415 8.98398 7.48317 8.74232 7.72484L8.17565 8.3165C8.18398 8.3415 8.19232 8.35817 8.20065 8.37484C8.30065 8.54984 8.50065 8.84984 8.88398 9.29984C9.29232 9.7665 9.67565 10.1915 10.059 10.5832C10.5507 11.0665 10.959 11.4498 11.3423 11.7665C11.8173 12.1665 12.1257 12.3665 12.309 12.4582L12.2923 12.4998L12.9007 11.8998C13.159 11.6415 13.409 11.4498 13.6507 11.3248C14.109 11.0415 14.6923 10.9915 15.2757 11.2332C15.4923 11.3248 15.7257 11.4498 15.9757 11.6248L18.7423 13.5915C19.0507 13.7998 19.2757 14.0665 19.409 14.3832C19.534 14.6998 19.5923 14.9915 19.5923 15.2832C19.5923 15.6832 19.5007 16.0832 19.3257 16.4582C19.1507 16.8332 18.934 17.1582 18.659 17.4582C18.184 17.9832 17.6673 18.3582 17.0673 18.5998C16.4923 18.8332 15.8673 18.9582 15.209 18.9582ZM5.32565 2.2915C4.86732 2.2915 4.44232 2.4915 4.03398 2.8915C3.65065 3.24984 3.38398 3.6415 3.21732 4.0665C3.04232 4.49984 2.95898 4.95817 2.95898 5.44984C2.95898 6.22484 3.14232 7.0665 3.50898 7.93317C3.88398 8.8165 4.40898 9.73317 5.07565 10.6498C5.74232 11.5665 6.50065 12.4582 7.33398 13.2998C8.16732 14.1248 9.06732 14.8915 9.99232 15.5665C10.8923 16.2248 11.8173 16.7582 12.734 17.1415C14.159 17.7498 15.4923 17.8915 16.5923 17.4332C17.0173 17.2582 17.3923 16.9915 17.734 16.6082C17.9257 16.3998 18.0757 16.1748 18.2007 15.9082C18.3007 15.6998 18.3507 15.4832 18.3507 15.2665C18.3507 15.1332 18.3257 14.9998 18.259 14.8498C18.234 14.7998 18.184 14.7082 18.0257 14.5998L15.259 12.6332C15.0923 12.5165 14.9423 12.4332 14.8007 12.3748C14.6173 12.2998 14.5423 12.2248 14.259 12.3998C14.0923 12.4832 13.9423 12.6082 13.7757 12.7748L13.1423 13.3998C12.8173 13.7165 12.3173 13.7915 11.934 13.6498L11.709 13.5498C11.3673 13.3665 10.9673 13.0832 10.5257 12.7082C10.1257 12.3665 9.69232 11.9665 9.16732 11.4498C8.75898 11.0332 8.35065 10.5915 7.92565 10.0998C7.53398 9.6415 7.25065 9.24984 7.07565 8.92484L6.97565 8.67484C6.92565 8.48317 6.90898 8.37484 6.90898 8.25817C6.90898 7.95817 7.01732 7.6915 7.22565 7.48317L7.85065 6.83317C8.01732 6.6665 8.14232 6.50817 8.22565 6.3665C8.29232 6.25817 8.31732 6.1665 8.31732 6.08317C8.31732 6.0165 8.29232 5.9165 8.25065 5.8165C8.19232 5.68317 8.10065 5.53317 7.98398 5.37484L6.05065 2.6415C5.96732 2.52484 5.86732 2.4415 5.74232 2.38317C5.60898 2.32484 5.46732 2.2915 5.32565 2.2915ZM12.2923 12.5082L12.159 13.0748L12.384 12.4915C12.3423 12.4832 12.309 12.4915 12.2923 12.5082Z" fill="#897261"/>
</svg>
