<svg width="16" height="17" viewBox="0 0 16 17" fill="none" xmlns="http://www.w3.org/2000/svg">
<path d="M7.99992 9.94655C6.57992 9.94655 5.41992 8.79321 5.41992 7.36655C5.41992 5.93988 6.57992 4.79321 7.99992 4.79321C9.41992 4.79321 10.5799 5.94655 10.5799 7.37321C10.5799 8.79988 9.41992 9.94655 7.99992 9.94655ZM7.99992 5.79321C7.13326 5.79321 6.41992 6.49988 6.41992 7.37321C6.41992 8.24655 7.12659 8.95321 7.99992 8.95321C8.87325 8.95321 9.57992 8.24655 9.57992 7.37321C9.57992 6.49988 8.86659 5.79321 7.99992 5.79321Z" fill="white"/>
<path d="M8.00012 15.6733C7.01345 15.6733 6.02012 15.2999 5.24678 14.5599C3.28012 12.6666 1.10678 9.64659 1.92678 6.05325C2.66678 2.79325 5.51345 1.33325 8.00012 1.33325C8.00012 1.33325 8.00012 1.33325 8.00678 1.33325C10.4935 1.33325 13.3401 2.79325 14.0801 6.05992C14.8934 9.65325 12.7201 12.6666 10.7534 14.5599C9.98012 15.2999 8.98678 15.6733 8.00012 15.6733ZM8.00012 2.33325C6.06012 2.33325 3.56678 3.36659 2.90678 6.27325C2.18678 9.41325 4.16012 12.1199 5.94678 13.8333C7.10012 14.9466 8.90678 14.9466 10.0601 13.8333C11.8401 12.1199 13.8134 9.41325 13.1068 6.27325C12.4401 3.36659 9.94012 2.33325 8.00012 2.33325Z" fill="white"/>
</svg>
