<svg width="21" height="20" viewBox="0 0 21 20" fill="none" xmlns="http://www.w3.org/2000/svg">
<path d="M14.834 17.7082H6.50065C6.15898 17.7082 5.87565 17.4248 5.87565 17.0832C5.87565 16.7415 6.15898 16.4582 6.50065 16.4582H14.834C17.2173 16.4582 18.3757 15.2998 18.3757 12.9165V7.08317C18.3757 4.69984 17.2173 3.5415 14.834 3.5415H6.50065C4.11732 3.5415 2.95898 4.69984 2.95898 7.08317C2.95898 7.42484 2.67565 7.70817 2.33398 7.70817C1.99232 7.70817 1.70898 7.42484 1.70898 7.08317C1.70898 4.0415 3.45898 2.2915 6.50065 2.2915H14.834C17.8757 2.2915 19.6257 4.0415 19.6257 7.08317V12.9165C19.6257 15.9582 17.8757 17.7082 14.834 17.7082Z" fill="#897261"/>
<path d="M10.667 10.725C9.96697 10.725 9.25864 10.5083 8.71697 10.0666L6.10864 7.98331C5.84197 7.76664 5.79197 7.37497 6.00864 7.10831C6.22531 6.84164 6.61696 6.79164 6.88363 7.00831L9.49197 9.09164C10.1253 9.59998 11.2003 9.59998 11.8336 9.09164L14.442 7.00831C14.7086 6.79164 15.1086 6.83331 15.317 7.10831C15.5336 7.37497 15.492 7.77498 15.217 7.98331L12.6086 10.0666C12.0753 10.5083 11.367 10.725 10.667 10.725Z" fill="#897261"/>
<path d="M7.33398 14.375H2.33398C1.99232 14.375 1.70898 14.0917 1.70898 13.75C1.70898 13.4083 1.99232 13.125 2.33398 13.125H7.33398C7.67565 13.125 7.95898 13.4083 7.95898 13.75C7.95898 14.0917 7.67565 14.375 7.33398 14.375Z" fill="#897261"/>
<path d="M4.83398 11.0415H2.33398C1.99232 11.0415 1.70898 10.7582 1.70898 10.4165C1.70898 10.0748 1.99232 9.7915 2.33398 9.7915H4.83398C5.17565 9.7915 5.45898 10.0748 5.45898 10.4165C5.45898 10.7582 5.17565 11.0415 4.83398 11.0415Z" fill="#897261"/>
</svg>
