<svg width="34" height="34" viewBox="0 0 34 34" fill="none" xmlns="http://www.w3.org/2000/svg">
<path d="M24.083 30.1034H9.91634C4.74551 30.1034 1.77051 27.1284 1.77051 21.9575V12.0409C1.77051 6.87002 4.74551 3.89502 9.91634 3.89502H24.083C29.2538 3.89502 32.2288 6.87002 32.2288 12.0409V21.9575C32.2288 27.1284 29.2538 30.1034 24.083 30.1034ZM9.91634 6.02002C5.86468 6.02002 3.89551 7.98919 3.89551 12.0409V21.9575C3.89551 26.0092 5.86468 27.9784 9.91634 27.9784H24.083C28.1347 27.9784 30.1038 26.0092 30.1038 21.9575V12.0409C30.1038 7.98919 28.1347 6.02002 24.083 6.02002H9.91634Z" fill="#514236"/>
<path d="M16.9993 18.2325C15.8093 18.2325 14.6051 17.8641 13.6843 17.1133L9.25011 13.5716C8.79678 13.2033 8.71178 12.5375 9.08012 12.0841C9.44845 11.6308 10.1143 11.5458 10.5676 11.9141L15.0018 15.4558C16.0784 16.32 17.9059 16.32 18.9826 15.4558L23.4168 11.9141C23.8701 11.5458 24.5501 11.6166 24.9043 12.0841C25.2726 12.5375 25.2018 13.2175 24.7343 13.5716L20.3001 17.1133C19.3934 17.8641 18.1893 18.2325 16.9993 18.2325Z" fill="#514236"/>
</svg>
