<svg width="46" height="45" viewBox="0 0 46 45" fill="none" xmlns="http://www.w3.org/2000/svg">
<path d="M24.875 42.6563H9.875C5.3375 42.6563 2.84375 40.1625 2.84375 35.625V20.625C2.84375 16.0875 5.3375 13.5938 9.875 13.5938H19.25C20.0188 13.5938 20.6563 14.2313 20.6563 15V35.625C20.6563 38.5875 21.9125 39.8438 24.875 39.8438C25.6438 39.8438 26.2813 40.4813 26.2813 41.25C26.2813 42.0188 25.6438 42.6563 24.875 42.6563ZM9.875 16.4063C6.9125 16.4063 5.65625 17.6625 5.65625 20.625V35.625C5.65625 38.5875 6.9125 39.8438 9.875 39.8438H18.875C18.2 38.7375 17.8438 37.3313 17.8438 35.625V16.4063H9.875Z" fill="#E7E0DB"/>
<path d="M19.25 16.4062H9.875C9.10625 16.4062 8.46875 15.7688 8.46875 15V11.25C8.46875 8.4 10.775 6.09375 13.625 6.09375H19.4562C19.8875 6.09375 20.3 6.29996 20.5625 6.63746C20.825 6.99371 20.9187 7.44375 20.8062 7.85625C20.6937 8.26875 20.6562 8.7375 20.6562 9.375V15C20.6562 15.7688 20.0187 16.4062 19.25 16.4062ZM11.2812 13.5938H17.8437V9.375C17.8437 9.20625 17.8437 9.05625 17.8437 8.90625H13.625C12.3312 8.90625 11.2812 9.95625 11.2812 11.25V13.5938Z" fill="#E7E0DB"/>
<path d="M26.75 25.7812C25.9812 25.7812 25.3438 25.1437 25.3438 24.375V15C25.3438 14.2312 25.9812 13.5938 26.75 13.5938C27.5187 13.5938 28.1562 14.2312 28.1562 15V24.375C28.1562 25.1437 27.5187 25.7812 26.75 25.7812Z" fill="#E7E0DB"/>
<path d="M34.25 25.7812C33.4812 25.7812 32.8438 25.1437 32.8438 24.375V15C32.8438 14.2312 33.4812 13.5938 34.25 13.5938C35.0187 13.5938 35.6562 14.2312 35.6562 15V24.375C35.6562 25.1437 35.0187 25.7812 34.25 25.7812Z" fill="#E7E0DB"/>
<path d="M34.25 42.6562H26.75C25.9812 42.6562 25.3438 42.0187 25.3438 41.25V33.75C25.3438 31.95 26.825 30.4688 28.625 30.4688H32.375C34.175 30.4688 35.6562 31.95 35.6562 33.75V41.25C35.6562 42.0187 35.0188 42.6562 34.25 42.6562ZM28.1562 39.8437H32.8438V33.75C32.8438 33.4875 32.6375 33.2812 32.375 33.2812H28.625C28.3625 33.2812 28.1562 33.4875 28.1562 33.75V39.8437Z" fill="#E7E0DB"/>
<path d="M11.75 33.2812C10.9812 33.2812 10.3438 32.6438 10.3438 31.875V24.375C10.3438 23.6062 10.9812 22.9688 11.75 22.9688C12.5187 22.9688 13.1562 23.6062 13.1562 24.375V31.875C13.1562 32.6438 12.5187 33.2812 11.75 33.2812Z" fill="#E7E0DB"/>
<path d="M36.125 42.6562H24.875C20.3375 42.6562 17.8438 40.1625 17.8438 35.625V9.375C17.8438 4.8375 20.3375 2.34375 24.875 2.34375H36.125C40.6625 2.34375 43.1562 4.8375 43.1562 9.375V35.625C43.1562 40.1625 40.6625 42.6562 36.125 42.6562ZM24.875 5.15625C21.9125 5.15625 20.6562 6.4125 20.6562 9.375V35.625C20.6562 38.5875 21.9125 39.8438 24.875 39.8438H36.125C39.0875 39.8438 40.3438 38.5875 40.3438 35.625V9.375C40.3438 6.4125 39.0875 5.15625 36.125 5.15625H24.875Z" fill="#E7E0DB"/>
</svg>
