<svg width="46" height="45" viewBox="0 0 46 45" fill="none" xmlns="http://www.w3.org/2000/svg">
<path d="M38.7127 39.6188C38.3377 39.6188 37.9815 39.4688 37.719 39.2063L25.7564 27.2438C25.2127 26.7 25.2127 25.8 25.7564 25.2563L40.2502 10.7625C40.6065 10.4063 41.1502 10.275 41.6377 10.4063C42.1252 10.5563 42.5002 10.95 42.6127 11.4375C42.9689 13.0313 43.1564 14.8125 43.1564 16.875V28.125C43.1564 33.3188 42.069 36.825 39.7065 39.2063C39.444 39.4688 39.0502 39.525 38.7127 39.6188ZM28.7377 26.25L38.6002 36.1125C39.7815 34.2937 40.3439 31.7063 40.3439 28.125V16.875C40.3439 16.1063 40.3252 15.3938 40.2689 14.7188L28.7377 26.25Z" fill="#E7E0DB"/>
<path d="M12.2562 42.15C12.1437 42.15 12.05 42.1313 11.9375 42.1125C5.73126 40.6875 2.84375 36.2437 2.84375 28.125V16.875C2.84375 6.69375 7.19375 2.34375 17.375 2.34375H28.625C36.7438 2.34375 41.1875 5.23126 42.6125 11.4375C42.725 11.9063 42.575 12.4125 42.2375 12.75L13.25 41.7375C12.9875 42 12.6312 42.15 12.2562 42.15ZM17.375 5.15625C8.73125 5.15625 5.65625 8.23125 5.65625 16.875V28.125C5.65625 34.6312 7.45627 37.8937 11.825 39.1875L39.6688 11.3438C38.3938 6.97501 35.1125 5.17499 28.6062 5.17499H17.375V5.15625Z" fill="#E7E0DB"/>
<path d="M28.6252 42.6562H17.3752C15.3127 42.6562 13.5502 42.4875 11.9377 42.1125C11.4315 42 11.0377 41.625 10.9064 41.1375C10.7564 40.65 10.9064 40.1249 11.2627 39.7499L25.7565 25.2562C26.3002 24.7125 27.2002 24.7125 27.744 25.2562L39.7065 37.2187C39.969 37.4812 40.119 37.8375 40.119 38.2125C40.119 38.5875 39.969 38.9437 39.7065 39.2062C37.3252 41.5687 33.819 42.6562 28.6252 42.6562ZM15.219 39.7687C15.894 39.825 16.6065 39.8437 17.3752 39.8437H28.6252C32.2252 39.8437 34.794 39.2812 36.6127 38.1L26.7502 28.2374L15.219 39.7687Z" fill="#E7E0DB"/>
<path d="M17.5995 24.9562C16.4183 24.9562 15.237 24.525 14.2995 23.6437C11.3183 20.8125 10.1183 17.7 10.8308 14.6625C11.5433 11.55 14.262 9.44995 17.5995 9.44995C20.937 9.44995 23.6558 11.55 24.3683 14.6625C25.0621 17.7187 23.862 20.8125 20.8808 23.6437C19.962 24.5062 18.7808 24.9562 17.5995 24.9562ZM13.5683 15.2812C12.9683 17.8312 14.6933 20.1187 16.2495 21.6C17.0183 22.3312 18.1995 22.3312 18.9495 21.6C20.487 20.1375 22.212 17.85 21.6308 15.2812C21.1245 13.05 19.137 12.2437 17.5995 12.2437C16.062 12.2437 14.0933 13.05 13.5683 15.2812Z" fill="#E7E0DB"/>
<path d="M17.6563 17.7937C16.625 17.7937 15.7812 16.95 15.7812 15.9187C15.7812 14.8875 16.6063 14.0437 17.6563 14.0437H17.675C18.7063 14.0437 19.55 14.8875 19.55 15.9187C19.55 16.95 18.6875 17.7937 17.6563 17.7937Z" fill="#E7E0DB"/>
</svg>
