<svg width="46" height="45" viewBox="0 0 46 45" fill="none" xmlns="http://www.w3.org/2000/svg">
<path d="M28.0623 42.6562H17.9373C8.6748 42.6562 4.7373 38.7 4.7373 29.4562V21.0375C4.7373 20.2687 5.3748 19.6312 6.14355 19.6312C6.9123 19.6312 7.5498 20.2687 7.5498 21.0375V29.4562C7.5498 37.125 10.2686 39.8437 17.9373 39.8437H28.0436C35.7123 39.8437 38.4311 37.125 38.4311 29.4562V21.0375C38.4311 20.2687 39.0686 19.6312 39.8373 19.6312C40.6061 19.6312 41.2436 20.2687 41.2436 21.0375V29.4562C41.2623 38.7 37.3061 42.6562 28.0623 42.6562Z" fill="#E7E0DB"/>
<path d="M22.9996 23.9062C20.9371 23.9062 19.0621 23.1 17.7309 21.6187C16.3996 20.1375 15.7809 18.2062 15.9871 16.1437L17.2434 3.61875C17.3184 2.90625 17.9184 2.34375 18.6496 2.34375H27.4059C28.1371 2.34375 28.7371 2.8875 28.8121 3.61875L30.0684 16.1437C30.2746 18.2062 29.6559 20.1375 28.3246 21.6187C26.9371 23.1 25.0621 23.9062 22.9996 23.9062ZM19.9059 5.15625L18.7809 16.425C18.6496 17.6812 19.0246 18.8625 19.8121 19.725C21.4059 21.4875 24.5934 21.4875 26.1871 19.725C26.9746 18.8438 27.3496 17.6625 27.2184 16.425L26.0934 5.15625H19.9059Z" fill="#E7E0DB"/>
<path d="M34.8315 23.9062C31.0252 23.9062 27.6315 20.8312 27.2377 17.0437L25.9252 3.9C25.8877 3.50625 26.019 3.1125 26.2815 2.8125C26.544 2.5125 26.919 2.34375 27.3315 2.34375H33.0502C38.5627 2.34375 41.1315 4.65 41.9002 10.3125L42.4252 15.525C42.6502 17.7375 41.9752 19.8375 40.5315 21.4312C39.0877 23.025 37.0627 23.9062 34.8315 23.9062ZM28.8877 5.15625L30.0502 16.7625C30.294 19.1062 32.469 21.0937 34.8315 21.0937C36.2565 21.0937 37.5315 20.55 38.4502 19.5562C39.3502 18.5625 39.7627 17.2312 39.6315 15.8062L39.1065 10.65C38.5252 6.4125 37.1565 5.15625 33.0502 5.15625H28.8877Z" fill="#E7E0DB"/>
<path d="M11.0747 23.9062C8.84342 23.9062 6.81842 23.025 5.37467 21.4312C3.93092 19.8375 3.25592 17.7375 3.48092 15.525L3.98717 10.3687C4.77467 4.65 7.34342 2.34375 12.8559 2.34375H18.5747C18.9684 2.34375 19.3434 2.5125 19.6247 2.8125C19.9059 3.1125 20.0184 3.50625 19.9809 3.9L18.6684 17.0437C18.2747 20.8312 14.8809 23.9062 11.0747 23.9062ZM12.8559 5.15625C8.74967 5.15625 7.38092 6.39375 6.78092 10.6875L6.27467 15.8062C6.12467 17.2312 6.55592 18.5625 7.45592 19.5562C8.35592 20.55 9.63092 21.0937 11.0747 21.0937C13.4372 21.0937 15.6309 19.1062 15.8559 16.7625L17.0184 5.15625H12.8559Z" fill="#E7E0DB"/>
<path d="M27.6875 42.6562H18.3125C17.5437 42.6562 16.9062 42.0187 16.9062 41.25V36.5625C16.9062 32.625 19.0625 30.4688 23 30.4688C26.9375 30.4688 29.0937 32.625 29.0937 36.5625V41.25C29.0937 42.0187 28.4562 42.6562 27.6875 42.6562ZM19.7187 39.8437H26.2812V36.5625C26.2812 34.2 25.3625 33.2812 23 33.2812C20.6375 33.2812 19.7187 34.2 19.7187 36.5625V39.8437Z" fill="#E7E0DB"/>
</svg>
