<svg width="46" height="45" viewBox="0 0 46 45" fill="none" xmlns="http://www.w3.org/2000/svg">
<path d="M29.5625 27.1875H7.06253C6.63128 27.1875 6.23753 26.9999 5.97503 26.6624C5.71253 26.3437 5.60004 25.8938 5.69379 25.4813L7.28752 17.8874C7.81252 15.4124 8.93752 12.8812 13.3813 12.8812H23.2625C27.7063 12.8812 28.8313 15.4124 29.3563 17.8874L30.95 25.4813C31.0438 25.8938 30.9313 26.3249 30.6688 26.6624C30.3875 26.9999 29.9938 27.1875 29.5625 27.1875ZM8.78753 24.375H27.8188L26.5813 18.4687C26.1875 16.5749 25.7188 15.6937 23.2438 15.6937H13.3625C10.8875 15.6937 10.4188 16.5749 10.025 18.4687L8.78753 24.375Z" fill="#E7E0DB" style="fill:#E7E0DB;fill:color(display-p3 0.9059 0.8784 0.8588);fill-opacity:1;"/>
<path d="M29.5062 42.6562H26.8624C24.3312 42.6562 23.8062 41.0999 23.5437 40.2562L23.2625 39.4125C22.925 38.4563 22.9249 38.4563 21.9312 38.4563H14.7312C13.7187 38.4563 13.7 38.4938 13.4 39.4125L13.1187 40.2562C12.8374 41.0999 12.3124 42.675 9.7812 42.675H7.13744C5.91869 42.675 4.77495 42.1688 3.94995 41.2688C3.16245 40.4063 2.76871 39.225 2.88121 38.0625L3.66871 29.4937C3.91246 26.8312 4.77496 24.375 9.34996 24.375H27.2937C31.8687 24.375 32.7312 26.8312 32.975 29.4937L33.7625 38.0625C33.875 39.225 33.4812 40.3875 32.6937 41.2688C31.8687 42.15 30.725 42.6562 29.5062 42.6562ZM26.375 39.8062C26.4125 39.8062 26.5624 39.8438 26.8624 39.8438H29.5062C29.9375 39.8438 30.3312 39.675 30.6124 39.3562C30.8749 39.0562 31.0062 38.7 30.9687 38.3062L30.1812 29.7375C30.0125 27.975 29.9374 27.1687 27.2937 27.1687H9.34996C6.70621 27.1687 6.63119 27.975 6.46244 29.7375L5.67494 38.3062C5.63744 38.7 5.7687 39.075 6.0312 39.3562C6.31245 39.675 6.70619 39.8438 7.13744 39.8438H9.7812C10.1937 39.8438 10.3062 39.7874 10.325 39.7874C10.325 39.7687 10.3999 39.5437 10.4562 39.375L10.7375 38.5312C11.1125 37.3875 11.6937 35.6438 14.75 35.6438H21.95C24.9687 35.6438 25.5312 37.2937 25.9437 38.5125L26.2437 39.375C26.2624 39.525 26.3187 39.7312 26.375 39.8062Z" fill="#E7E0DB" style="fill:#E7E0DB;fill:color(display-p3 0.9059 0.8784 0.8588);fill-opacity:1;"/>
<path d="M7.0625 22.9688H5.65625C4.8875 22.9688 4.25 22.3312 4.25 21.5625C4.25 20.7937 4.8875 20.1562 5.65625 20.1562H7.0625C7.83125 20.1562 8.46875 20.7937 8.46875 21.5625C8.46875 22.3312 7.83125 22.9688 7.0625 22.9688Z" fill="#E7E0DB" style="fill:#E7E0DB;fill:color(display-p3 0.9059 0.8784 0.8588);fill-opacity:1;"/>
<path d="M30.9688 22.9688H29.5625C28.7937 22.9688 28.1562 22.3312 28.1562 21.5625C28.1562 20.7937 28.7937 20.1562 29.5625 20.1562H30.9688C31.7375 20.1562 32.375 20.7937 32.375 21.5625C32.375 22.3312 31.7375 22.9688 30.9688 22.9688Z" fill="#E7E0DB" style="fill:#E7E0DB;fill:color(display-p3 0.9059 0.8784 0.8588);fill-opacity:1;"/>
<path d="M14.0938 32.8125H9.875C9.10625 32.8125 8.46875 32.175 8.46875 31.4062C8.46875 30.6375 9.10625 30 9.875 30H14.0938C14.8625 30 15.5 30.6375 15.5 31.4062C15.5 32.175 14.8625 32.8125 14.0938 32.8125Z" fill="#E7E0DB" style="fill:#E7E0DB;fill:color(display-p3 0.9059 0.8784 0.8588);fill-opacity:1;"/>
<path d="M26.75 32.8125H22.5312C21.7625 32.8125 21.125 32.175 21.125 31.4062C21.125 30.6375 21.7625 30 22.5312 30H26.75C27.5188 30 28.1562 30.6375 28.1562 31.4062C28.1562 32.175 27.5188 32.8125 26.75 32.8125Z" fill="#E7E0DB" style="fill:#E7E0DB;fill:color(display-p3 0.9059 0.8784 0.8588);fill-opacity:1;"/>
<path d="M35.5819 17.7937C35.3944 17.7937 35.2069 17.7562 35.0194 17.6812C34.3069 17.3624 33.9881 16.5375 34.2881 15.825C34.6444 15.0187 34.4381 13.8374 33.7818 12.8624C33.1256 11.8687 32.1319 11.2124 31.2131 11.2499H31.1943C30.4256 11.2499 29.8068 10.6312 29.7881 9.86247C29.7881 9.07497 30.4068 8.4562 31.1756 8.43745C33.1068 8.39995 34.9256 9.50623 36.1069 11.2875C37.3069 13.0875 37.5881 15.2438 36.8568 16.9313C36.6506 17.475 36.1256 17.7937 35.5819 17.7937Z" fill="#E7E0DB" style="fill:#E7E0DB;fill:color(display-p3 0.9059 0.8784 0.8588);fill-opacity:1;"/>
<path d="M41.4123 19.6501C41.281 19.6501 41.1685 19.6314 41.0373 19.5939C40.2873 19.3877 39.856 18.6189 40.0623 17.8689C40.7748 15.3189 40.1748 12.2814 38.4685 9.73138C36.7623 7.18138 34.1748 5.47513 31.531 5.15638C30.7623 5.06263 30.2185 4.36884 30.3123 3.60009C30.406 2.83134 31.1185 2.26891 31.8685 2.38141C35.2998 2.79391 38.6373 4.96887 40.7935 8.19387C42.9498 11.4189 43.681 15.3189 42.7623 18.6564C42.5935 19.2376 42.031 19.6501 41.4123 19.6501Z" fill="#E7E0DB" style="fill:#E7E0DB;fill:color(display-p3 0.9059 0.8784 0.8588);fill-opacity:1;"/>
</svg>
